<?xml version="1.0" encoding="UTF-8"?>
<svg id="Layer_2" data-name="Layer 2" xmlns="http://www.w3.org/2000/svg" viewBox="0 0 110.17 122.41">
  <g id="Layer_1-2" data-name="Layer 1">
    <path d="m104.05,18.36c1.62,0,3.18.65,4.33,1.79,1.15,1.15,1.79,2.7,1.79,4.33s-.64,3.18-1.79,4.33c-1.15,1.15-2.7,1.79-4.33,1.79h-6.12l-.02.43-5.71,80c-.22,3.09-1.6,5.98-3.87,8.09-2.27,2.11-5.25,3.28-8.34,3.28H30.18c-3.1,0-6.08-1.17-8.34-3.28-2.27-2.11-3.65-5-3.87-8.09L12.25,31.04c0-.15-.01-.29-.01-.44h-6.12c-1.62,0-3.18-.65-4.33-1.79-1.15-1.15-1.79-2.7-1.79-4.33s.64-3.18,1.79-4.33c1.15-1.15,2.7-1.79,4.33-1.79h97.93ZM67.33,0c1.62,0,3.18.64,4.33,1.79,1.15,1.15,1.79,2.7,1.79,4.33s-.64,3.18-1.79,4.33c-1.15,1.15-2.7,1.79-4.33,1.79h-24.48c-1.62,0-3.18-.64-4.33-1.79-1.15-1.15-1.79-2.7-1.79-4.33s.64-3.18,1.79-4.33c1.15-1.15,2.7-1.79,4.33-1.79h24.48Z"/>
  </g>
</svg>