<?xml version="1.0" encoding="UTF-8"?>
<svg id="Layer_2" data-name="Layer 2" xmlns="http://www.w3.org/2000/svg" viewBox="0 0 107.17 104.57">
  <defs>
    <style>
      .cls-1 {
        fill: #231f20;
      }
    </style>
  </defs>
  <g id="Layer_1-2" data-name="Layer 1">
    <path class="cls-1" d="m0,17.05l8.98,7.47c-3.8,6.17-5.99,13.43-5.99,21.2,0,17.17,10.68,31.84,25.76,37.74-4.21-5.82-6.69-12.98-6.69-20.71s2.67-15.44,7.18-21.38l8.64,7.19,2.94-17.07,4.51-26.24.9-5.25L0,17.05Z"/>
    <path class="cls-1" d="m107.17,87.52l-8.98-7.47c3.8-6.17,5.99-13.43,5.99-21.2,0-17.17-10.68-31.84-25.76-37.74,4.21,5.82,6.69,12.98,6.69,20.71s-2.67,15.44-7.18,21.38l-8.64-7.19-2.94,17.07-4.51,26.24-.9,5.25,46.23-17.05Z"/>
  </g>
</svg>