<?xml version="1.0" encoding="UTF-8"?>
<svg id="Layer_2" data-name="Layer 2" xmlns="http://www.w3.org/2000/svg" viewBox="0 0 125.34 117">
  <g id="Layer_1-2" data-name="Layer 1">
    <path d="m33.14,28.97c16.24-16.24,42.48-16.32,58.83-.26l-10.76,10.73c-1.8,1.8-2.32,4.49-1.36,6.84.97,2.35,3.26,3.86,5.8,3.86h33.42c3.47,0,6.27-2.79,6.27-6.27V10.45c0-2.53-1.51-4.83-3.86-5.8-2.35-.97-5.04-.44-6.84,1.36l-10.86,10.86c-22.87-22.59-59.72-22.51-82.46.26-6.37,6.37-10.97,13.87-13.79,21.88-1.54,4.36.76,9.11,5.09,10.65,4.33,1.54,9.11-.76,10.65-5.09,2.01-5.69,5.27-11.05,9.87-15.61ZM0,73.12v33.42c0,2.53,1.51,4.83,3.86,5.8,2.35.97,5.04.44,6.84-1.36l10.86-10.86c22.87,22.59,59.72,22.51,82.46-.26,6.37-6.37,10.99-13.87,13.81-21.86,1.54-4.36-.76-9.11-5.09-10.65-4.33-1.54-9.11.76-10.65,5.09-2.01,5.69-5.27,11.05-9.87,15.61-16.24,16.24-42.48,16.32-58.83.26l10.73-10.76c1.8-1.8,2.32-4.49,1.36-6.84s-3.26-3.86-5.8-3.86H6.27c-3.47,0-6.27,2.79-6.27,6.27Z"/>
  </g>
</svg>