# This file uses centimeters as units for non-parametric coordinates.

mtllib corner.mtl
g default
v -0.517448 -1.000000 0.517448
v 1.000000 -1.000000 0.517448
v -0.517448 1.000000 0.517448
v 1.000000 1.000000 0.517448
v -0.517448 1.000000 -1.000000
v -0.517448 -1.000000 -1.000000
v -0.517448 1.000000 -0.059540
v -0.517448 -1.000000 -0.059540
v 1.000000 1.000000 -0.059540
v 0.059540 -1.000000 0.517448
v 0.059540 1.000000 0.517448
v 0.059540 1.000000 -0.059540
v 0.059540 1.000000 -1.000000
v 1.000000 -1.000000 -0.059540
v 0.059540 -1.000000 -0.059540
v 0.059540 -1.000000 -1.000000
vt 0.375000 0.000000
vt 0.625000 0.000000
vt 0.375000 0.250000
vt 0.625000 0.250000
vt 0.375000 0.500000
vt 0.125000 0.000000
vt 0.125000 0.250000
vt 0.275000 0.250000
vt 0.375000 0.350000
vt 0.275000 0.000000
vt 0.625000 0.350000
vt 0.500000 0.000000
vt 0.500000 0.250000
vt 0.500000 0.350000
vt 0.500000 0.500000
vt 0.000000 0.000000
vt 1.000000 0.000000
vt 1.000000 1.000000
vt 0.000000 1.000000
vt 0.000000 0.000000
vt 1.000000 0.000000
vt 1.000000 1.000000
vt 0.000000 1.000000
vn 0.000000 0.000000 1.000000
vn 0.000000 0.000000 1.000000
vn 0.000000 0.000000 1.000000
vn 0.000000 0.000000 1.000000
vn 0.000000 1.000000 0.000000
vn 0.000000 1.000000 0.000000
vn 0.000000 1.000000 0.000000
vn 0.000000 1.000000 0.000000
vn -1.000000 0.000000 0.000000
vn -1.000000 0.000000 0.000000
vn -1.000000 0.000000 0.000000
vn -1.000000 0.000000 0.000000
vn -1.000000 0.000000 0.000000
vn -1.000000 0.000000 0.000000
vn 0.000000 1.000000 0.000000
vn 0.000000 1.000000 0.000000
vn 0.000000 0.000000 1.000000
vn 0.000000 0.000000 1.000000
vn 0.000000 1.000000 0.000000
vn 0.000000 1.000000 0.000000
vn 0.000000 0.000000 -1.000000
vn 0.000000 0.000000 -1.000000
vn 0.000000 0.000000 -1.000000
vn 0.000000 0.000000 -1.000000
vn 1.000000 0.000000 0.000000
vn 1.000000 0.000000 0.000000
vn 1.000000 0.000000 0.000000
vn 1.000000 0.000000 0.000000
s 1
g wall_corner
usemtl initialShadingGroup
f 1/1/1 10/12/2 11/13/3 3/3/4
s 2
f 3/3/5 11/13/6 12/14/7 7/9/8
s 3
f 7/8/9 8/10/10 1/1/11 3/3/12
f 6/6/13 8/10/10 7/8/9 5/7/14
s 2
f 7/9/8 12/14/7 13/15/15 5/5/16
s 1
f 11/13/3 10/12/2 2/2/17 4/4/18
s 2
f 12/14/7 11/13/6 4/4/19 9/11/20
s off
f 12/16/21 9/17/22 14/18/23 15/19/24
f 13/20/25 12/21/26 15/22/27 16/23/28
