# This file uses centimeters as units for non-parametric coordinates.

v -0.788691 1.000000 -1.000000
v 0.788691 1.000000 -1.000000
v -0.788691 0.069959 -0.931788
v 0.788691 0.069959 -0.931788
v -0.788691 1.000000 0.000000
v -0.788691 0.558671 0.000000
v 0.788691 0.558671 0.000000
v 0.788691 1.000000 0.000000
v -0.788691 1.000000 -1.200000
v 0.788691 1.000000 -1.200000
v 0.788691 -0.538105 -1.200000
v -0.788691 -0.538105 -1.200000
v -0.788691 0.449509 -0.484133
v -0.788691 1.000000 -0.523432
v 0.788691 1.000000 -0.523432
v 0.788691 0.449509 -0.484133
v -0.788691 1.000000 1.000000
v 0.788691 1.000000 1.000000
v -0.788691 0.069959 0.931788
v 0.788691 0.069959 0.931788
v -0.788691 1.000000 1.200000
v 0.788691 1.000000 1.200000
v 0.788691 -0.538105 1.200000
v -0.788691 -0.538105 1.200000
v -0.788691 0.449509 0.484133
v -0.788691 1.000000 0.523432
v 0.788691 1.000000 0.523432
v 0.788691 0.449509 0.484133
vt 0.375000 0.500000
vt 0.625000 0.500000
vt 0.375000 0.750000
vt 0.625000 0.750000
vt 0.875000 0.000000
vt 0.875000 0.250000
vt 0.125000 0.000000
vt 0.125000 0.250000
vt 0.250000 0.250000
vt 0.375000 0.375000
vt 0.250000 0.000000
vt 0.375000 0.875000
vt 0.625000 0.875000
vt 0.750000 0.000000
vt 0.625000 0.375000
vt 0.750000 0.250000
vt 0.375000 0.500000
vt 0.625000 0.500000
vt 0.625000 0.750000
vt 0.375000 0.750000
vt 0.184571 0.000000
vt 0.375000 0.809571
vt 0.184571 0.250000
vt 0.375000 0.440429
vt 0.625000 0.440429
vt 0.815429 0.250000
vt 0.625000 0.809571
vt 0.815429 0.000000
vt 0.375000 0.500000
vt 0.625000 0.500000
vt 0.625000 0.750000
vt 0.375000 0.750000
vt 0.125000 0.000000
vt 0.184571 0.000000
vt 0.184571 0.250000
vt 0.125000 0.250000
vt 0.375000 0.750000
vt 0.625000 0.750000
vt 0.625000 0.809571
vt 0.375000 0.809571
vt 0.815429 0.250000
vt 0.815429 0.000000
vt 0.875000 0.000000
vt 0.875000 0.250000
vt 0.375000 0.440429
vt 0.625000 0.440429
vt 0.625000 0.500000
vt 0.375000 0.500000
vt 0.250000 0.000000
vt 0.250000 0.250000
vt 0.375000 0.375000
vt 0.625000 0.375000
vt 0.750000 0.250000
vt 0.750000 0.000000
vt 0.625000 0.875000
vt 0.375000 0.875000
vn 0.000000 0.000000 -1.000000
vn 0.000000 0.000000 -1.000000
vn 0.000000 0.000000 -1.000000
vn 0.000000 0.000000 -1.000000
vn -1.000000 -0.000000 0.000000
vn -1.000000 0.000000 0.000000
vn -1.000000 0.000000 0.000000
vn -1.000000 -0.000000 0.000000
vn 0.000000 -0.762744 0.646701
vn 0.000000 -0.762744 0.646701
vn 0.000000 -0.762744 0.646701
vn 0.000000 -0.762744 0.646701
vn 1.000000 0.000000 0.000000
vn 1.000000 0.000000 0.000000
vn 1.000000 0.000000 0.000000
vn 1.000000 0.000000 0.000000
vn 0.000000 1.000000 0.000000
vn 0.000000 1.000000 0.000000
vn 0.000000 1.000000 0.000000
vn 0.000000 1.000000 0.000000
vn 0.000000 1.000000 0.000000
vn 0.000000 1.000000 0.000000
vn 0.000000 1.000000 0.000000
vn 0.000000 1.000000 0.000000
vn 1.000000 0.000000 0.000000
vn 1.000000 0.000000 0.000000
vn 1.000000 0.000000 0.000000
vn 1.000000 0.000000 0.000000
vn 0.000000 -0.403575 0.914947
vn 0.000000 -0.403575 0.914947
vn 0.000000 -0.403575 0.914947
vn 0.000000 -0.403575 0.914947
vn -1.000000 0.000000 0.000000
vn -1.000000 0.000000 0.000000
vn -1.000000 0.000000 0.000000
vn -1.000000 0.000000 0.000000
vn -1.000000 0.000000 0.000000
vn -1.000000 0.000000 0.000000
vn 0.000000 1.000000 0.000000
vn 0.000000 1.000000 0.000000
vn 1.000000 0.000000 0.000000
vn 1.000000 0.000000 0.000000
vn 0.000000 -0.975509 0.219958
vn 0.000000 -0.975509 0.219958
vn 0.000000 -0.975509 0.219958
vn 0.000000 -0.975509 0.219958
vn 0.000000 0.000000 1.000000
vn 0.000000 0.000000 1.000000
vn 0.000000 0.000000 1.000000
vn 0.000000 0.000000 1.000000
vn -1.000000 0.000000 0.000000
vn -1.000000 0.000000 0.000000
vn -1.000000 0.000000 0.000000
vn -1.000000 0.000000 0.000000
vn 0.000000 -0.762744 -0.646701
vn 0.000000 -0.762744 -0.646701
vn 0.000000 -0.762744 -0.646701
vn 0.000000 -0.762744 -0.646701
vn 1.000000 0.000000 0.000000
vn 1.000000 0.000000 0.000000
vn 1.000000 0.000000 0.000000
vn 1.000000 0.000000 0.000000
vn 0.000000 1.000000 0.000000
vn 0.000000 1.000000 0.000000
vn 0.000000 1.000000 0.000000
vn 0.000000 1.000000 0.000000
vn 0.000000 1.000000 0.000000
vn 0.000000 1.000000 0.000000
vn 0.000000 1.000000 0.000000
vn 0.000000 1.000000 0.000000
vn 1.000000 0.000000 0.000000
vn 1.000000 0.000000 0.000000
vn 1.000000 0.000000 0.000000
vn 1.000000 0.000000 0.000000
vn 0.000000 -0.403575 -0.914947
vn 0.000000 -0.403575 -0.914947
vn 0.000000 -0.403575 -0.914947
vn 0.000000 -0.403575 -0.914947
vn -1.000000 0.000000 0.000000
vn -1.000000 0.000000 0.000000
vn -1.000000 0.000000 0.000000
vn -1.000000 0.000000 0.000000
vn 0.000000 -0.975509 -0.219958
vn 0.000000 -0.975509 -0.219958
vn 0.000000 -0.975509 -0.219958
vn 0.000000 -0.975509 -0.219958
s off
f 9/17/1 10/18/2 11/19/3 12/20/4
s 1
f 3/7/5 13/21/6 14/23/7 1/8/8
s off
f 3/3/9 4/4/10 16/27/11 13/22/12
s 2
f 15/26/13 16/28/14 4/5/15 2/6/16
s 3
f 14/24/17 15/25/18 2/2/19 1/1/20
s off
f 1/1/21 2/2/22 10/18/23 9/17/24
f 2/2/25 4/4/26 11/19/27 10/18/28
f 4/4/29 3/3/30 12/20/31 11/19/32
f 3/3/33 1/1/34 9/17/35 12/20/36
s 1
f 14/23/7 13/21/6 6/11/37 5/9/38
s 3
f 5/10/39 8/15/40 15/25/18 14/24/17
s 2
f 8/16/41 7/14/42 16/28/14 15/26/13
s off
f 13/22/43 16/27/44 7/13/45 6/12/46
f 21/29/47 24/32/48 23/31/49 22/30/50
s 1
f 19/33/51 17/36/52 26/35/53 25/34/54
s off
f 19/37/55 25/40/56 28/39/57 20/38/58
s 2
f 27/41/59 18/44/60 20/43/61 28/42/62
s 3
f 26/45/63 17/48/64 18/47/65 27/46/66
s off
f 17/48/67 21/29/68 22/30/69 18/47/70
f 18/47/71 22/30/72 23/31/73 20/38/74
f 20/38/75 23/31/76 24/32/77 19/37/78
f 19/37/79 24/32/80 21/29/81 17/48/82
s 1
f 26/35/53 5/50/38 6/49/37 25/34/54
s 3
f 5/51/39 26/45/63 27/46/66 8/52/40
s 2
f 8/53/41 27/41/59 28/42/62 7/54/42
s off
f 25/40/83 6/56/84 7/55/85 28/39/86
