# This file uses centimeters as units for non-parametric coordinates.

v 0.739104 -1.000000 -0.306146
v 0.565686 -1.000000 -0.565685
v 0.306147 -1.000000 -0.739103
v 0.000000 -1.000000 -0.800000
v -0.306146 -1.000000 -0.739104
v -0.565685 -1.000000 -0.565686
v -0.739103 -1.000000 -0.306147
v -0.800000 -1.000000 -0.000000
v -0.739104 -1.000000 0.306147
v -0.565686 -1.000000 0.565685
v -0.306147 -1.000000 0.739104
v -0.000000 -1.000000 0.800000
v 0.306147 -1.000000 0.739104
v 0.565685 -1.000000 0.565685
v 0.739104 -1.000000 0.306147
v 0.800000 -1.000000 0.000000
v 0.000000 1.000000 -0.000000
v 0.000000 -1.000000 0.000000
vt 0.644356 0.096456
vt 0.610485 0.045765
vt 0.559794 0.011894
vt 0.500000 0.000000
vt 0.440206 0.011894
vt 0.389515 0.045765
vt 0.355644 0.096456
vt 0.343750 0.156250
vt 0.355644 0.216044
vt 0.389515 0.266735
vt 0.440206 0.300606
vt 0.500000 0.312500
vt 0.559794 0.300606
vt 0.610485 0.266735
vt 0.644356 0.216044
vt 0.656250 0.156250
vt 0.375000 0.312500
vt 0.390625 0.312500
vt 0.406250 0.312500
vt 0.421875 0.312500
vt 0.437500 0.312500
vt 0.453125 0.312500
vt 0.468750 0.312500
vt 0.484375 0.312500
vt 0.500000 0.312500
vt 0.515625 0.312500
vt 0.531250 0.312500
vt 0.546875 0.312500
vt 0.562500 0.312500
vt 0.578125 0.312500
vt 0.593750 0.312500
vt 0.609375 0.312500
vt 0.625000 0.312500
vt 0.500000 0.687500
vt 0.500000 0.156250
vn 0.857801 0.371391 -0.355313
vn 0.656533 0.371391 -0.656532
vn -0.000001 1.000000 -0.000000
vn 0.355313 0.371391 -0.857801
vn 0.000000 0.371391 -0.928477
vn -0.355312 0.371391 -0.857801
vn -0.656532 0.371391 -0.656532
vn -0.857801 0.371391 -0.355313
vn -0.928477 0.371391 -0.000000
vn -0.857801 0.371391 0.355312
vn -0.656532 0.371391 0.656532
vn -0.355313 0.371391 0.857801
vn -0.000000 0.371391 0.928477
vn 0.355313 0.371391 0.857801
vn 0.656532 0.371391 0.656532
vn 0.857801 0.371391 0.355313
vn 0.928477 0.371391 0.000000
vn 0.000000 -1.000000 0.000000
vn 0.000000 -1.000000 0.000000
vn 0.000000 -1.000000 -0.000000
vn 0.000000 -1.000000 -0.000000
vn 0.000000 -1.000000 -0.000000
vn 0.000000 -1.000000 0.000000
vn 0.000000 -1.000000 0.000000
vn 0.000000 -1.000000 0.000000
vn 0.000000 -1.000000 0.000000
vn 0.000000 -1.000000 0.000000
vn 0.000000 -1.000000 0.000000
vn 0.000000 -1.000000 0.000000
vn 0.000000 -1.000000 0.000000
vn 0.000000 -1.000000 0.000000
vn 0.000000 -1.000000 0.000000
vn 0.000000 -1.000000 0.000000
vn 0.000000 -1.000000 0.000000
s 1
f 1/17/1 2/18/2 17/34/3
f 2/18/2 3/19/4 17/34/3
f 3/19/4 4/20/5 17/34/3
f 4/20/5 5/21/6 17/34/3
f 5/21/6 6/22/7 17/34/3
f 6/22/7 7/23/8 17/34/3
f 7/23/8 8/24/9 17/34/3
f 8/24/9 9/25/10 17/34/3
f 9/25/10 10/26/11 17/34/3
f 10/26/11 11/27/12 17/34/3
f 11/27/12 12/28/13 17/34/3
f 12/28/13 13/29/14 17/34/3
f 13/29/14 14/30/15 17/34/3
f 14/30/15 15/31/16 17/34/3
f 15/31/16 16/32/17 17/34/3
f 16/32/17 1/33/1 17/34/3
s 2
f 2/2/18 1/1/19 18/35/20
f 3/3/21 2/2/18 18/35/20
f 4/4/22 3/3/21 18/35/20
f 5/5/23 4/4/22 18/35/20
f 6/6/24 5/5/23 18/35/20
f 7/7/25 6/6/24 18/35/20
f 8/8/26 7/7/25 18/35/20
f 9/9/27 8/8/26 18/35/20
f 10/10/28 9/9/27 18/35/20
f 11/11/29 10/10/28 18/35/20
f 12/12/30 11/11/29 18/35/20
f 13/13/31 12/12/30 18/35/20
f 14/14/32 13/13/31 18/35/20
f 15/15/33 14/14/32 18/35/20
f 16/16/34 15/15/33 18/35/20
f 1/1/19 16/16/34 18/35/20
