# This file uses centimeters as units for non-parametric coordinates.

v -0.800000 -1.000000 -0.000000
v -0.739104 -1.000000 0.306147
v -0.565686 -1.000000 0.565685
v -0.306147 -1.000000 0.739104
v -0.000000 -1.000000 0.800000
v -0.800000 1.000000 -0.000000
v -0.739104 1.000000 0.306147
v -0.565686 1.000000 0.565685
v -0.306147 1.000000 0.739104
v -0.000000 1.000000 0.800000
v 0.000000 1.000000 0.000000
v -0.800000 -1.000000 -1.000000
v -0.800000 1.000000 -1.000000
v 0.000000 1.000000 -1.000000
v 1.000000 -1.000000 0.800000
v 1.000000 1.000000 0.800000
v 1.000000 1.000000 0.000000
v 1.000000 1.000000 -1.000000
vt 0.484375 0.312500
vt 0.500000 0.312500
vt 0.515625 0.312500
vt 0.531250 0.312500
vt 0.546875 0.312500
vt 0.484375 0.687500
vt 0.500000 0.687500
vt 0.515625 0.687500
vt 0.531250 0.687500
vt 0.546875 0.687500
vt 0.500000 0.687500
vt 0.440206 0.699394
vt 0.389515 0.733265
vt 0.355644 0.783956
vt 0.343750 0.843750
vt 0.500000 0.843750
vt 0.000000 0.000000
vt 1.000000 0.000000
vt 1.000000 1.000000
vt 0.000000 1.000000
vt 0.000000 0.000000
vt 1.000000 0.000000
vt 0.999950 0.999950
vt 0.000000 1.000000
vt 0.000000 0.000000
vt 1.000000 0.000000
vt 1.000000 1.000000
vt 0.000000 1.000000
vt 0.000000 0.000000
vt 1.000000 0.000000
vt 1.000000 1.000000
vt 0.000000 1.000000
vt 0.000000 0.000000
vt 1.000000 0.000000
vt 1.000000 1.000000
vt 0.000050 1.159098
vn -0.980785 0.000000 0.195090
vn -0.923880 0.000000 0.382683
vn -0.923880 0.000000 0.382683
vn -0.980785 0.000000 0.195090
vn -0.707107 0.000000 0.707107
vn -0.707107 0.000000 0.707107
vn -0.382684 0.000000 0.923879
vn -0.382684 0.000000 0.923879
vn -0.195091 0.000000 0.980785
vn -0.195091 0.000000 0.980785
vn 0.000000 1.000000 0.000000
vn 0.000000 1.000000 0.000000
vn 0.000000 1.000000 0.000000
vn 0.000000 1.000000 0.000000
vn 0.000000 1.000000 0.000000
vn 0.000000 1.000000 0.000000
vn -1.000000 0.000000 0.000000
vn -1.000000 0.000000 0.000000
vn -1.000000 0.000000 0.000000
vn -1.000000 0.000000 0.000000
vn 0.000000 1.000000 0.000000
vn 0.000000 1.000000 0.000000
vn 0.000000 1.000000 0.000000
vn 0.000000 1.000000 0.000000
vn 0.000000 0.000000 1.000000
vn 0.000000 0.000000 1.000000
vn 0.000000 0.000000 1.000000
vn 0.000000 0.000000 1.000000
vn 0.000000 1.000000 0.000000
vn 0.000000 1.000000 0.000000
vn 0.000000 1.000000 0.000000
vn 0.000000 1.000000 0.000000
vn 0.000000 1.000000 0.000000
vn 0.000000 1.000000 0.000000
vn 0.000000 1.000000 0.000000
vn 0.000000 1.000000 0.000000
s 1
f 1/1/1 2/2/2 7/7/3 6/6/4
f 2/2/2 3/3/5 8/8/6 7/7/3
f 3/3/5 4/4/7 9/9/8 8/8/6
f 4/4/7 5/5/9 10/10/10 9/9/8
s 2
f 6/15/11 7/14/12 11/16/13
f 7/14/12 8/13/14 11/16/13
f 8/13/14 9/12/15 11/16/13
f 9/12/15 10/11/16 11/16/13
s off
f 1/17/17 6/18/18 13/19/19 12/20/20
f 6/21/21 11/22/22 14/23/23 13/24/24
f 10/25/25 5/26/26 15/27/27 16/28/28
f 11/29/29 10/30/30 16/31/31 17/32/32
f 11/33/33 17/34/34 18/35/35 14/36/36
