# This file uses centimeters as units for non-parametric coordinates.

v -0.800000 -1.000000 1.000000
v -0.800000 1.000000 1.000000
v 0.000000 1.000000 1.000000
v 1.000000 1.000000 1.000000
v -0.800000 -1.000000 0.800000
v -0.800000 1.000000 0.800000
v 0.000000 1.000000 0.800000
v 1.000000 1.000000 0.800000
v 1.000000 1.000000 0.000000
v 1.000000 1.000000 -1.000000
v -1.000000 1.000000 0.800000
v -1.000000 -1.000000 0.800000
v -1.000000 1.000000 0.000000
v -1.000000 1.000000 -1.000000
v -0.800000 1.000000 0.000000
v -0.800000 1.000000 -1.000000
v 0.000000 1.000000 0.000000
v 0.000000 1.000000 -1.000000
vt 1.000000 1.000000
vt 0.000000 1.000000
vt 1.000000 1.000000
vt 0.000000 1.000000
vt 1.000000 1.000000
vt 0.000000 1.000000
vt 1.000000 0.786685
vt 1.000000 0.786685
vt 0.000000 0.786685
vt 1.000000 0.786685
vt 0.000000 0.786685
vt 0.000000 0.786685
vt 0.000000 0.000000
vt 1.000000 0.000000
vt 1.000000 0.291155
vt 0.000000 0.291155
vt 0.000000 0.000000
vt 1.000000 0.000000
vt 1.000000 0.291155
vt 0.000000 0.291155
vt 0.000000 0.000000
vt 1.000000 0.000000
vt 1.000000 0.291155
vt 0.000000 0.291155
vt 1.000000 0.652816
vt 0.000000 0.652816
vt 1.000000 0.652816
vt 0.000000 0.652816
vt 1.000000 1.000000
vt 0.000000 1.000000
vt 1.000000 1.000000
vt 0.000000 1.000000
vn -1.000000 0.000000 0.000000
vn -1.000000 0.000000 0.000000
vn -1.000000 0.000000 0.000000
vn -1.000000 0.000000 0.000000
vn 0.000000 1.000000 -0.000000
vn 0.000000 1.000000 -0.000000
vn 0.000000 1.000000 -0.000000
vn 0.000000 1.000000 -0.000000
vn -0.000000 1.000000 -0.000000
vn -0.000000 1.000000 -0.000000
vn -0.000000 1.000000 -0.000000
vn -0.000000 1.000000 -0.000000
vn 0.000000 0.000000 1.000000
vn 0.000000 0.000000 1.000000
vn 0.000000 0.000000 1.000000
vn 0.000000 0.000000 1.000000
vn 0.000000 1.000000 0.000000
vn 0.000000 1.000000 0.000000
vn 0.000000 1.000000 0.000000
vn 0.000000 1.000000 0.000000
vn 0.000000 1.000000 0.000000
vn 0.000000 1.000000 0.000000
vn 0.000000 1.000000 0.000000
vn 0.000000 1.000000 0.000000
vn 0.000000 1.000000 0.000000
vn 0.000000 1.000000 0.000000
vn 0.000000 1.000000 0.000000
vn 0.000000 1.000000 0.000000
vn -0.000000 1.000000 0.000000
vn -0.000000 1.000000 0.000000
vn 0.000000 1.000000 0.000000
vn 0.000000 1.000000 0.000000
s off
f 6/9/1 5/7/2 1/1/3 2/2/4
f 7/11/5 6/8/6 2/3/7 3/4/8
f 8/12/9 7/10/10 3/5/11 4/6/12
f 11/13/13 12/14/14 5/15/15 6/16/16
s 1
f 13/17/17 11/18/18 6/19/19 15/20/20
s 2
f 14/21/21 13/22/22 15/23/23 16/24/24
s 1
f 15/20/20 6/19/19 7/25/25 17/26/26
s 2
f 16/24/24 15/23/23 17/27/27 18/28/28
s 1
f 17/26/26 7/25/25 8/29/29 9/30/30
s 2
f 18/28/28 17/27/27 9/31/31 10/32/32
